<!DOCTYPE svg PUBLIC "-//W3C//DTD SVG 1.1//EN" "http://www.w3.org/Graphics/SVG/1.1/DTD/svg11.dtd"><svg
    viewBox="0 0 24 24" xmlns="http://www.w3.org/2000/svg">
    <defs>
        <style>
            .sprite {
                display: none
            }

            .sprite:target {
                display: inline
            }
        </style>
    </defs>
    <g class="sprite" id="bolalampu">
        <path d="M0 0h24v24H0z" fill="none"/>
        <path d="M9 21c0 .55.45 1 1 1h4c.55 0 1-.45 1-1v-1H9v1zm3-19C8.14 2 5 5.14 5 9c0 2.38 1.19 4.47 3 5.74V17c0 .55.45 1 1 1h6c.55 0 1-.45 1-1v-2.26c1.81-1.27 3-3.36 3-5.74 0-3.86-3.14-7-7-7zm2.85 11.1l-.85.6V16h-4v-2.3l-.85-.6C7.8 12.16 7 10.63 7 9c0-2.76 2.24-5 5-5s5 2.24 5 5c0 1.63-.8 3.16-2.15 4.1z"/>
    </g>
    <g class="sprite" id="hapus">
        <path d="M0 0h24v24H0V0z" fill="none"/>
        <path d="M16 9v10H8V9h8m-1.5-6h-5l-1 1H5v2h14V4h-3.5l-1-1zM18 7H6v12c0 1.1.9 2 2 2h8c1.1 0 2-.9 2-2V7z"/>
    </g>
    <g class="sprite" id="pelanggaran">
        <path d="M10.01 21.01c0 1.1.89 1.99 1.99 1.99s1.99-.89 1.99-1.99h-3.98zM12 6c2.76 0 5 2.24 5 5v7H7v-7c0-2.76 2.24-5 5-5zm0-4.5c-.83 0-1.5.67-1.5 1.5v1.17C7.36 4.85 5 7.65 5 11v6l-2 2v1h18v-1l-2-2v-6c0-3.35-2.36-6.15-5.5-6.83V3c0-.83-.67-1.5-1.5-1.5zM11 8h2v4h-2zm0 6h2v2h-2z"/>
    </g>
    <g class="sprite" id="cari">
        <path d="M0 0h24v24H0V0z" fill="none"/>
        <path d="M15.5 14h-.79l-.28-.27C15.41 12.59 16 11.11 16 9.5 16 5.91 13.09 3 9.5 3S3 5.91 3 9.5 5.91 16 9.5 16c1.61 0 3.09-.59 4.23-1.57l.27.28v.79l5 4.99L20.49 19l-4.99-5zm-6 0C7.01 14 5 11.99 5 9.5S7.01 5 9.5 5 14 7.01 14 9.5 11.99 14 9.5 14z"/>
    </g>
    <g class="sprite" id="posisi">
        <path d="M.01 0h24v24h-24V0z" fill="none" />
        <path
            d="M5.5 22v-7.5H4V9c0-1.1.9-2 2-2h3c1.1 0 2 .9 2 2v5.5H9.5V22h-4zM18 22v-6h3l-2.54-7.63C18.18 7.55 17.42 7 16.56 7h-.12c-.86 0-1.63.55-1.9 1.37L12 16h3v6h3zM7.5 6c1.11 0 2-.89 2-2s-.89-2-2-2-2 .89-2 2 .89 2 2 2zm9 0c1.11 0 2-.89 2-2s-.89-2-2-2-2 .89-2 2 .89 2 2 2z" />
    </g>
    <g class="sprite" id="dokumen">
        <path d="M0 0h24v24H0z" fill="none" />
        <path
            d="M16.5 6v11.5c0 2.21-1.79 4-4 4s-4-1.79-4-4V5c0-1.38 1.12-2.5 2.5-2.5s2.5 1.12 2.5 2.5v10.5c0 .55-.45 1-1 1s-1-.45-1-1V6H10v9.5c0 1.38 1.12 2.5 2.5 2.5s2.5-1.12 2.5-2.5V5c0-2.21-1.79-4-4-4S7 2.79 7 5v12.5c0 3.04 2.46 5.5 5.5 5.5s5.5-2.46 5.5-5.5V6h-1.5z" />
    </g>
    <g class="sprite" id="menu">
        <path d="M3 18h18v-2H3v2zm0-5h18v-2H3v2zm0-7v2h18V6H3z" />
    </g>
    <g class="sprite" id="rumah">
        <path d="M0 0h24v24H0V0z" fill="none" />
        <path d="M12 5.69l5 4.5V18h-2v-6H9v6H7v-7.81l5-4.5M12 3L2 12h3v8h6v-6h2v6h6v-8h3L12 3z" />
    </g>
    <g class="sprite" id="informasi">
        <path d="M0 0h24v24H0V0z" fill="none" />
        <path
            d="M11 7h2v2h-2zm0 4h2v6h-2zm1-9C6.48 2 2 6.48 2 12s4.48 10 10 10 10-4.48 10-10S17.52 2 12 2zm0 18c-4.41 0-8-3.59-8-8s3.59-8 8-8 8 3.59 8 8-3.59 8-8 8z" />
    </g>
    <g class="sprite" id="lihat">
        <path d="M0 0h24v24H0V0z" fill="none" />
        <path
            d="M12 6a9.77 9.77 0 018.82 5.5C19.17 14.87 15.79 17 12 17s-7.17-2.13-8.82-5.5A9.77 9.77 0 0112 6m0-2C7 4 2.73 7.11 1 11.5 2.73 15.89 7 19 12 19s9.27-3.11 11-7.5C21.27 7.11 17 4 12 4zm0 5a2.5 2.5 0 010 5 2.5 2.5 0 010-5m0-2c-2.48 0-4.5 2.02-4.5 4.5S9.52 16 12 16s4.5-2.02 4.5-4.5S14.48 7 12 7z" />
    </g>
    <g class="sprite" id="aplikasi">
        <path d="M0 0h24v24H0z" fill="none" />
        <path
            d="M4 8h4V4H4v4zm6 12h4v-4h-4v4zm-6 0h4v-4H4v4zm0-6h4v-4H4v4zm6 0h4v-4h-4v4zm6-10v4h4V4h-4zm-6 4h4V4h-4v4zm6 6h4v-4h-4v4zm0 6h4v-4h-4v4z" />
    </g>
    <g class="sprite" id="tambah">
        <path d="M0 0h24v24H0z" fill="none" />
        <path d="M19 13h-6v6h-2v-6H5v-2h6V5h2v6h6v2z" />
    </g>
    <g class="sprite" id="unduh">
        <path d="M0 0h24v24H0V0z" fill="none"/>
        <path d="M19 9h-4V3H9v6H5l7 7 7-7zm-8 2V5h2v6h1.17L12 13.17 9.83 11H11zm-6 7h14v2H5z"/>
    </g>
    <g class="sprite" id="panahkembali">
        <path d="M20 11H7.83l5.59-5.59L12 4l-8 8 8 8 1.41-1.41L7.83 13H20v-2z" />
    </g>
    <g class="sprite" id="tema">
        <path
            d="M20 8.69V4h-4.69L12 .69 8.69 4H4v4.69L.69 12 4 15.31V20h4.69L12 23.31 15.31 20H20v-4.69L23.31 12 20 8.69zM12 18c-.89 0-1.74-.2-2.5-.55C11.56 16.5 13 14.42 13 12s-1.44-4.5-3.5-5.45C10.26 6.2 11.11 6 12 6c3.31 0 6 2.69 6 6s-2.69 6-6 6z" />
    </g>
    <g class="sprite" id="akun">
        <path d="M0 0h24v24H0z" fill="none" />
        <path
            d="M12 2C6.48 2 2 6.48 2 12s4.48 10 10 10 10-4.48 10-10S17.52 2 12 2zm0 3c1.66 0 3 1.34 3 3s-1.34 3-3 3-3-1.34-3-3 1.34-3 3-3zm0 14.2a7.2 7.2 0 01-6-3.22c.03-1.99 4-3.08 6-3.08 1.99 0 5.97 1.09 6 3.08a7.2 7.2 0 01-6 3.22z" />
    </g>
    <g class="sprite" id="kunci">
        <path d="M0 0h24v24H0z" fill="none" />
        <path
            d="M12.65 10A5.99 5.99 0 007 6c-3.31 0-6 2.69-6 6s2.69 6 6 6a5.99 5.99 0 005.65-4H17v4h4v-4h2v-4H12.65zM7 14c-1.1 0-2-.9-2-2s.9-2 2-2 2 .9 2 2-.9 2-2 2z" />
    </g>
    <g class="sprite" id="keluar">
        <path
            d="M10.09 15.59L11.5 17l5-5-5-5-1.41 1.41L12.67 11H3v2h9.67l-2.58 2.59zM19 3H5a2 2 0 00-2 2v4h2V5h14v14H5v-4H3v4a2 2 0 002 2h14c1.1 0 2-.9 2-2V5c0-1.1-.9-2-2-2z" />
    </g>
    <g class="sprite" id="riwayat">
        <path d="M0 0h24v24H0V0z" fill="none" />
        <path
            d="M13 3a9 9 0 00-9 9H1l3.89 3.89.07.14L9 12H6c0-3.87 3.13-7 7-7s7 3.13 7 7-3.13 7-7 7c-1.93 0-3.68-.79-4.94-2.06l-1.42 1.42A8.954 8.954 0 0013 21a9 9 0 000-18zm-1 5v5l4.25 2.52.77-1.28-3.52-2.09V8z" />
    </g>
    <g class="sprite" id="pengaturan">
        <path d="M0 0h24v24H0V0z" fill="none" />
        <path
            d="M19.43 12.98c.04-.32.07-.64.07-.98 0-.34-.03-.66-.07-.98l2.11-1.65c.19-.15.24-.42.12-.64l-2-3.46a.5.5 0 00-.61-.22l-2.49 1c-.52-.4-1.08-.73-1.69-.98l-.38-2.65A.488.488 0 0014 2h-4c-.25 0-.46.18-.49.42l-.38 2.65c-.61.25-1.17.59-1.69.98l-2.49-1a.566.566 0 00-.18-.03c-.17 0-.34.09-.43.25l-2 3.46c-.13.22-.07.49.12.64l2.11 1.65c-.04.32-.07.65-.07.98 0 .33.03.66.07.98l-2.11 1.65c-.19.15-.24.42-.12.64l2 3.46a.5.5 0 00.61.22l2.49-1c.52.4 1.08.73 1.69.98l.38 2.65c.03.24.24.42.49.42h4c.25 0 .46-.18.49-.42l.38-2.65c.61-.25 1.17-.59 1.69-.98l2.49 1c.06.02.12.03.18.03.17 0 .34-.09.43-.25l2-3.46c.12-.22.07-.49-.12-.64l-2.11-1.65zm-1.98-1.71c.04.31.05.52.05.73 0 .21-.02.43-.05.73l-.14 1.13.89.7 1.08.84-.7 1.21-1.27-.51-1.04-.42-.9.68c-.43.32-.84.56-1.25.73l-1.06.43-.16 1.13-.2 1.35h-1.4l-.19-1.35-.16-1.13-1.06-.43c-.43-.18-.83-.41-1.23-.71l-.91-.7-1.06.43-1.27.51-.7-1.21 1.08-.84.89-.7-.14-1.13c-.03-.31-.05-.54-.05-.74s.02-.43.05-.73l.14-1.13-.89-.7-1.08-.84.7-1.21 1.27.51 1.04.42.9-.68c.43-.32.84-.56 1.25-.73l1.06-.43.16-1.13.2-1.35h1.39l.19 1.35.16 1.13 1.06.43c.43.18.83.41 1.23.71l.91.7 1.06-.43 1.27-.51.7 1.21-1.07.85-.89.7.14 1.13zM12 8c-2.21 0-4 1.79-4 4s1.79 4 4 4 4-1.79 4-4-1.79-4-4-4zm0 6c-1.1 0-2-.9-2-2s.9-2 2-2 2 .9 2 2-.9 2-2 2z" />
    </g>
    <g class="sprite" id="perhatian">
        <path
            d="M11 15h2v2h-2v-2zm0-8h2v6h-2V7zm.99-5C6.47 2 2 6.48 2 12s4.47 10 9.99 10C17.52 22 22 17.52 22 12S17.52 2 11.99 2zM12 20c-4.42 0-8-3.58-8-8s3.58-8 8-8 8 3.58 8 8-3.58 8-8 8z" />
    </g>
    <g class="sprite" id="tutup">
        <path d="M0 0h24v24H0z" fill="none" />
        <path
            d="M19 6.41L17.59 5 12 10.59 6.41 5 5 6.41 10.59 12 5 17.59 6.41 19 12 13.41 17.59 19 19 17.59 13.41 12z" />
    </g>
    <g class="sprite" id="awal">
        <path d="M18.41 16.59L13.82 12l4.59-4.59L17 6l-6 6 6 6zM6 6h2v12H6z" />
        <path d="M24 24H0V0h24v24z" fill="none" />
    </g>
    <g class="sprite" id="akhir">
        <path d="M0 0h24v24H0V0z" fill="none" />
        <path d="M5.59 7.41L10.18 12l-4.59 4.59L7 18l6-6-6-6zM16 6h2v12h-2z" />
    </g>
    <g class="sprite" id="maju">
        <path d="M0 0h24v24H0z" fill="none" />
        <path d="M10 6L8.59 7.41 13.17 12l-4.58 4.59L10 18l6-6z" />
    </g>
    <g class="sprite" id="mundur">
        <path d="M0 0h24v24H0z" fill="none" />
        <path d="M15.41 7.41L14 6l-6 6 6 6 1.41-1.41L10.83 12z" />
    </g>
    <g class="sprite" id="panahatas">
        <g>
            <rect fill="none" height="24" width="24"/>
        </g>
        <g>
            <polygon points="5,12 6.41,13.41 12,7.83 17.59,13.41 19,12 12,5"/>
        </g>
    </g>
    <g class="sprite" id="menuvert">
        <path d="M0 0h24v24H0z" fill="none" />
        <path
            d="M12 8c1.1 0 2-.9 2-2s-.9-2-2-2-2 .9-2 2 .9 2 2 2zm0 2c-1.1 0-2 .9-2 2s.9 2 2 2 2-.9 2-2-.9-2-2-2zm0 6c-1.1 0-2 .9-2 2s.9 2 2 2 2-.9 2-2-.9-2-2-2z" />
    </g>
    <symbol class="sprite" id="personil" enable-background="new 0 0 24 24">
        <rect fill="none" />
        <g>
            <path
                d="M4 13c1.1 0 2-.9 2-2s-.9-2-2-2-2 .9-2 2 .9 2 2 2zm1.13 1.1c-.37-.06-.74-.1-1.13-.1-.99 0-1.93.21-2.78.58A2.01 2.01 0 000 16.43V18h4.5v-1.61c0-.83.23-1.61.63-2.29zM20 13c1.1 0 2-.9 2-2s-.9-2-2-2-2 .9-2 2 .9 2 2 2zm4 3.43c0-.81-.48-1.53-1.22-1.85A6.95 6.95 0 0020 14c-.39 0-.76.04-1.13.1.4.68.63 1.46.63 2.29V18H24v-1.57zm-7.76-2.78c-1.17-.52-2.61-.9-4.24-.9-1.63 0-3.07.39-4.24.9A2.988 2.988 0 006 16.39V18h12v-1.61c0-1.18-.68-2.26-1.76-2.74zM8.07 16c.09-.23.13-.39.91-.69.97-.38 1.99-.56 3.02-.56s2.05.18 3.02.56c.77.3.81.46.91.69H8.07zM12 8c.55 0 1 .45 1 1s-.45 1-1 1-1-.45-1-1 .45-1 1-1m0-2c-1.66 0-3 1.34-3 3s1.34 3 3 3 3-1.34 3-3-1.34-3-3-3z" />
        </g>
    </symbol>
    <symbol class="sprite" id="unggah" enable-background="new 0 0 24 24">
        <path d="M0 0h24v24H0V0z" fill="none"/>
        <path d="M9 16h6v-6h4l-7-7-7 7h4v6zm3-10.17L14.17 8H13v6h-2V8H9.83L12 5.83zM5 18h14v2H5z"/>
    </symbol>
    <symbol class="sprite" id="masuk" enable-background="new 0 0 24 24">
        <rect fill="none" />
        <g>
            <path
                d="M11 7L9.6 8.4l2.6 2.6H2v2h10.2l-2.6 2.6L11 17l5-5-5-5zm9 12h-8v2h8c1.1 0 2-.9 2-2V5c0-1.1-.9-2-2-2h-8v2h8v14z" />
        </g>
    </symbol>
    <symbol class="sprite" id="pensil" enable-background="new 0 0 24 24">
        <g>
            <path fill="none" d="M0 0h24v24H0z" />
        </g>
        <g>
            <g>
                <g>
                    <path d="M3 21h3.75L17.81 9.94l-3.75-3.75L3 17.25V21zm2-2.92l9.06-9.06.92.92L5.92 19H5v-.92z" />
                </g>
                <g>
                    <path
                        d="M18.37 3.29a.996.996 0 00-1.41 0l-1.83 1.83 3.75 3.75 1.83-1.83a.996.996 0 000-1.41l-2.34-2.34z" />
                </g>
            </g>
        </g>
    </symbol>
    <symbol class="sprite" id="tambahorang" enable-background="new 0 0 24 24">
        <g>
            <path fill="none" d="M0 0h24v24H0z" />
        </g>
        <g>
            <path
                d="M13 8c0-2.21-1.79-4-4-4S5 5.79 5 8s1.79 4 4 4 4-1.79 4-4zm-2 0c0 1.1-.9 2-2 2s-2-.9-2-2 .9-2 2-2 2 .9 2 2zM1 18v2h16v-2c0-2.66-5.33-4-8-4s-8 1.34-8 4zm2 0c.2-.71 3.3-2 6-2 2.69 0 5.78 1.28 6 2H3zm17-3v-3h3v-2h-3V7h-2v3h-3v2h3v3h2z" />
        </g>
    </symbol>
    <symbol class="sprite" id="cetak" enable-background="new 0 0 24 24">
        <g>
            <rect fill="none" height="24" width="24" />
        </g>
        <g>
            <g>
                <path
                    d="M19,12h-1V4H6v8H5c-1.66,0-3,1.34-3,3v5h20v-5C22,13.34,20.66,12,19,12z M8,6h8v6H8V6z M20,18H4v-3c0-0.55,0.45-1,1-1h14 c0.55,0,1,0.45,1,1V18z" />
                <circle cx="18" cy="16" r="1" />
            </g>
        </g>
    </symbol>
    <symbol class="sprite" id="kartuID" enable-background="new 0 0 24 24">
        <g>
            <rect fill="none" height="24" width="24" y="0"/>
        </g>
        <g>
            <g>
                <rect height="1.5" width="4" x="14" y="12"/>
                <rect height="1.5" width="4" x="14" y="15"/>
                <path d="M20,7h-5V4c0-1.1-0.9-2-2-2h-2C9.9,2,9,2.9,9,4v3H4C2.9,7,2,7.9,2,9v11c0,1.1,0.9,2,2,2h16c1.1,0,2-0.9,2-2V9 C22,7.9,21.1,7,20,7z M11,7V4h2v3v2h-2V7z M20,20H4V9h5c0,1.1,0.9,2,2,2h2c1.1,0,2-0.9,2-2h5V20z"/>
                <circle cx="9" cy="13.5" r="1.5"/>
                <path d="M11.08,16.18C10.44,15.9,9.74,15.75,9,15.75s-1.44,0.15-2.08,0.43C6.36,16.42,6,16.96,6,17.57V18h6v-0.43 C12,16.96,11.64,16.42,11.08,16.18z"/>
            </g>
        </g>
    </symbol>
    <symbol class="sprite" id="statistik" enable-background="new 0 0 24 24">
        <g>
            <rect fill="none" height="24" width="24"/>
        </g>
        <g>
            <g>
                <path d="M21,8c-1.45,0-2.26,1.44-1.93,2.51l-3.55,3.56c-0.3-0.09-0.74-0.09-1.04,0l-2.55-2.55C12.27,10.45,11.46,9,10,9 c-1.45,0-2.27,1.44-1.93,2.52l-4.56,4.55C2.44,15.74,1,16.55,1,18c0,1.1,0.9,2,2,2c1.45,0,2.26-1.44,1.93-2.51l4.55-4.56 c0.3,0.09,0.74,0.09,1.04,0l2.55,2.55C12.73,16.55,13.54,18,15,18c1.45,0,2.27-1.44,1.93-2.52l3.56-3.55 C21.56,12.26,23,11.45,23,10C23,8.9,22.1,8,21,8z"/>
                <polygon points="15,9 15.94,6.93 18,6 15.94,5.07 15,3 14.08,5.07 12,6 14.08,6.93"/>
                <polygon points="3.5,11 4,9 6,8.5 4,8 3.5,6 3,8 1,8.5 3,9"/>
            </g>
        </g>
    </symbol>
</svg>